<?xml version="1.0" encoding="utf-8"?>
<!-- Generator: Adobe Illustrator 27.1.1, SVG Export Plug-In . SVG Version: 6.00 Build 0)  -->
<svg version="1.1" id="Layer_1" xmlns="http://www.w3.org/2000/svg" xmlns:xlink="http://www.w3.org/1999/xlink" x="0px" y="0px"
	 viewBox="0 0 498.5 532.2" style="enable-background:new 0 0 498.5 532.2;" xml:space="preserve">
<g>
	<path d="M486.7,335.9l-46.2-33.3c2.3-11.9,3.5-24,3.5-36.6s-1.2-24.7-3.5-36.6l46.2-33.3c11.8-8.6,15.3-24.6,7.9-37.2L464.7,107
		c-7.3-12.6-22.9-17.7-36.2-11.7l-51.9,23.4c-18.4-16-39.9-28.5-63.4-36.6l-5.8-56.7C306,11,293.8,0,279.2,0h-59.9
		c-14.5,0-26.7,11-28.2,25.5l-5.8,56.7c-23.5,8.2-44.9,20.7-63.4,36.6L70,95.4c-13.3-6-28.9-0.9-36.2,11.7L3.9,159
		c-7.3,12.6-3.8,28.6,7.9,37.2L58,229.5c-2.3,11.8-3.5,24-3.5,36.6s1.2,24.7,3.5,36.6L11.8,336C0,344.6-3.5,360.6,3.9,373.2
		l29.9,51.9c7.3,12.6,22.9,17.7,36.2,11.7l51.9-23.4c18.4,16,39.9,28.5,63.4,36.6l5.8,56.7c1.5,14.5,13.7,25.5,28.2,25.5h59.9
		c14.5,0,26.7-11,28.2-25.5l5.8-56.7c23.5-8.2,44.9-20.7,63.4-36.6l51.9,23.4c13.3,6,28.9,0.9,36.2-11.7l29.9-51.9
		C501.9,360.5,498.5,344.4,486.7,335.9L486.7,335.9z M249.3,364.2c-54.3,0-98.2-43.9-98.2-98.2s43.9-98.2,98.2-98.2
		s98.2,43.9,98.2,98.2S303.6,364.2,249.3,364.2z"/>
</g>
</svg>
