<?xml version="1.0" encoding="utf-8"?>
<!-- Generator: Adobe Illustrator 27.1.1, SVG Export Plug-In . SVG Version: 6.00 Build 0)  -->
<svg version="1.1" id="Layer_1" xmlns="http://www.w3.org/2000/svg" xmlns:xlink="http://www.w3.org/1999/xlink" x="0px" y="0px"
	 viewBox="0 0 509.4 509.3" style="enable-background:new 0 0 509.4 509.3;" xml:space="preserve">
<g>
	<path d="M450.5,58.8c-78.4-78.4-205.5-78.4-283.9,0c-69.4,69.4-77.3,176.4-24.1,254.8L10.9,445.2c-14.6,14.6-14.6,38.6,0,53.2
		s38.6,14.6,53.2,0l131.6-131.6c78.4,53.2,185.4,45.4,254.8-24.1C529,264.3,529,137.2,450.5,58.8L450.5,58.8z M209.2,300.2
		c-54.9-54.9-54.9-143.4,0-198.2s143.4-54.9,198.2,0s54.9,143.4,0,198.2S264,354.5,209.2,300.2z"/>
</g>
</svg>
